<svg xmlns="http://www.w3.org/2000/svg" width="107.524" height="128.648" viewBox="0 0 107.524 128.648"><defs><style>.a{fill:#c88d8e;}.b{fill:#7d1416;}</style></defs><g transform="translate(-1152.297 -477.082)"><g transform="translate(1160.119 477.082)"><g transform="translate(0)"><path class="a" d="M1218.623,562.167a11.689,11.689,0,0,1,6.912-2.846l5.693-.407a11.953,11.953,0,0,0,11.115-11.115l.407-5.693a11.687,11.687,0,0,1,2.847-6.913l3.795-4.337a11.957,11.957,0,0,0,0-15.723L1245.6,510.8a11.685,11.685,0,0,1-2.847-6.913l-.407-5.693a11.952,11.952,0,0,0-11.115-11.114l-5.693-.407a11.684,11.684,0,0,1-6.912-2.847l-4.337-3.795a11.957,11.957,0,0,0-15.724,0l-4.338,3.388a11.684,11.684,0,0,1-6.912,2.847l-5.694.407a11.953,11.953,0,0,0-11.114,11.114l-.407,5.694a11.684,11.684,0,0,1-2.847,6.912l-3.794,4.337a11.956,11.956,0,0,0,0,15.724l3.794,4.337a11.68,11.68,0,0,1,2.847,6.912l.407,5.694a11.953,11.953,0,0,0,11.114,11.114l5.694.407a11.683,11.683,0,0,1,6.912,2.847l4.338,3.794a11.956,11.956,0,0,0,15.724,0Zm-37.681-39.307a25.482,25.482,0,1,1,25.481,25.482A25.452,25.452,0,0,1,1180.943,522.86Z" transform="translate(-1160.51 -477.082)"></path></g></g><g transform="translate(1152.297 506.054)"><path class="b" d="M1222.276,517.666l-7.049-1.355a2.162,2.162,0,0,1-1.626-1.22l-3.525-6.371a2.418,2.418,0,0,0-4.2,0l-3.524,6.371a2.422,2.422,0,0,1-1.627,1.22l-7.048,1.355a2.49,2.49,0,0,0-1.355,4.066l4.879,5.286a2.539,2.539,0,0,1,.677,1.9l-.812,7.183a2.376,2.376,0,0,0,3.388,2.44l6.506-3.117a2.64,2.64,0,0,1,2.033,0l6.506,3.117a2.351,2.351,0,0,0,3.389-2.44l-.813-7.183a1.993,1.993,0,0,1,.677-1.9l4.88-5.286A2.474,2.474,0,0,0,1222.276,517.666Z" transform="translate(-1154.172 -507.501)"></path><path class="b" d="M1188.548,572.367a3.845,3.845,0,0,0-2.3-.948l-5.693-.407a20.073,20.073,0,0,1-14.367-7.725l-13.554,28.87a3.786,3.786,0,0,0,4.066,5.286l12.2-2.3a3.726,3.726,0,0,1,3.931,1.9l5.964,10.843a3.583,3.583,0,0,0,6.506-.271l13.147-28.057a19.74,19.74,0,0,1-5.558-3.389Z" transform="translate(-1152.297 -510.155)"></path><path class="b" d="M1262.5,592.157l-13.554-28.87a20.559,20.559,0,0,1-14.367,7.725l-5.693.407a4.41,4.41,0,0,0-2.3.948l-4.338,3.66a21.063,21.063,0,0,1-5.557,3.389l13.147,28.057a3.665,3.665,0,0,0,6.506.272L1242.3,596.9a3.835,3.835,0,0,1,3.931-1.9l12.2,2.3A3.664,3.664,0,0,0,1262.5,592.157Z" transform="translate(-1155.36 -510.155)"></path></g></g></svg>